<svg width="383" height="72" viewBox="0 0 383 72" fill="none" xmlns="http://www.w3.org/2000/svg">
<path d="M78.5043 57C76.2676 57 74.5259 56.4133 73.2793 55.24C72.0326 54.03 71.4093 52.38 71.4093 50.29V25.1C71.4093 23.0467 72.0143 21.4333 73.2243 20.26C74.4709 19.0867 76.1943 18.5 78.3943 18.5H91.4293C95.1326 18.5 98.0109 19.4167 100.064 21.25C102.118 23.0833 103.144 25.6683 103.144 29.005C103.144 30.9117 102.649 32.58 101.659 34.01C100.669 35.4033 99.3126 36.4667 97.5893 37.2V37.31C99.5326 38.0067 101.054 39.1067 102.154 40.61C103.254 42.0767 103.804 43.8183 103.804 45.835C103.804 49.2817 102.759 52.0133 100.669 54.03C98.5793 56.01 95.7193 57 92.0893 57H78.5043ZM91.8693 35.66C94.0326 35.66 95.7559 35.055 97.0393 33.845C98.3226 32.635 98.9643 31.0217 98.9643 29.005C98.9643 26.695 98.3226 24.935 97.0393 23.725C95.7559 22.515 93.8859 21.91 91.4293 21.91H78.4493C77.6059 21.91 76.9093 22.2217 76.3593 22.845C75.8093 23.4317 75.5343 24.1833 75.5343 25.1V35.66H91.8693ZM91.8693 53.535C94.3993 53.535 96.3243 52.8933 97.6443 51.61C98.9643 50.29 99.6243 48.3833 99.6243 45.89C99.6243 43.7267 98.9276 42.04 97.5343 40.83C96.1409 39.62 94.2343 39.015 91.8143 39.015H75.5343V50.4C75.5343 51.3167 75.8093 52.0683 76.3593 52.655C76.9093 53.2417 77.6059 53.535 78.4493 53.535H91.8693ZM113.794 57.55C113.171 57.55 112.676 57.3667 112.309 57C111.979 56.5967 111.814 56.0467 111.814 55.35V17.455C111.814 16.7583 111.979 16.2267 112.309 15.86C112.676 15.4567 113.171 15.255 113.794 15.255C114.417 15.255 114.912 15.4567 115.279 15.86C115.646 16.2267 115.829 16.7583 115.829 17.455V55.35C115.829 56.01 115.646 56.5417 115.279 56.945C114.949 57.3483 114.454 57.55 113.794 57.55ZM138.373 57.55C135.183 57.55 132.451 56.9083 130.178 55.625C127.904 54.3417 126.181 52.6367 125.008 50.51C123.871 48.3467 123.303 46.0183 123.303 43.525C123.303 41.0317 123.871 38.7217 125.008 36.595C126.181 34.4317 127.904 32.7083 130.178 31.425C132.451 30.1417 135.183 29.5 138.373 29.5C141.563 29.5 144.276 30.1417 146.513 31.425C148.786 32.7083 150.491 34.4317 151.628 36.595C152.801 38.7217 153.388 41.0317 153.388 43.525C153.388 46.0183 152.801 48.3467 151.628 50.51C150.491 52.6367 148.786 54.3417 146.513 55.625C144.276 56.9083 141.563 57.55 138.373 57.55ZM138.373 54.085C141.673 54.085 144.313 53.15 146.293 51.28C148.309 49.41 149.318 46.825 149.318 43.525C149.318 40.225 148.309 37.64 146.293 35.77C144.313 33.9 141.673 32.965 138.373 32.965C135.036 32.965 132.359 33.9 130.343 35.77C128.363 37.64 127.373 40.225 127.373 43.525C127.373 46.825 128.363 49.41 130.343 51.28C132.359 53.15 135.036 54.085 138.373 54.085ZM171.996 57.55C168.806 57.55 166.074 56.9083 163.801 55.625C161.527 54.3417 159.804 52.6367 158.631 50.51C157.494 48.3467 156.926 46.0183 156.926 43.525C156.926 41.0317 157.494 38.7217 158.631 36.595C159.804 34.4317 161.527 32.7083 163.801 31.425C166.074 30.1417 168.806 29.5 171.996 29.5C175.186 29.5 177.899 30.1417 180.136 31.425C182.409 32.7083 184.114 34.4317 185.251 36.595C186.424 38.7217 187.011 41.0317 187.011 43.525C187.011 46.0183 186.424 48.3467 185.251 50.51C184.114 52.6367 182.409 54.3417 180.136 55.625C177.899 56.9083 175.186 57.55 171.996 57.55ZM171.996 54.085C175.296 54.085 177.936 53.15 179.916 51.28C181.932 49.41 182.941 46.825 182.941 43.525C182.941 40.225 181.932 37.64 179.916 35.77C177.936 33.9 175.296 32.965 171.996 32.965C168.659 32.965 165.982 33.9 163.966 35.77C161.986 37.64 160.996 40.225 160.996 43.525C160.996 46.825 161.986 49.41 163.966 51.28C165.982 53.15 168.659 54.085 171.996 54.085ZM206.52 57.55C201.974 57.55 198.38 56.3217 195.74 53.865C193.137 51.3717 191.835 47.98 191.835 43.69C191.835 40.9767 192.404 38.5567 193.54 36.43C194.714 34.2667 196.4 32.58 198.6 31.37C200.837 30.1233 203.514 29.5 206.63 29.5C209.27 29.5 211.507 29.995 213.34 30.985C215.21 31.975 216.86 33.35 218.29 35.11L218.345 17.455C218.345 16.7583 218.51 16.2267 218.84 15.86C219.207 15.4567 219.72 15.255 220.38 15.255C221.004 15.255 221.48 15.4567 221.81 15.86C222.177 16.2267 222.36 16.7583 222.36 17.455V55.35C222.36 56.0467 222.177 56.5967 221.81 57C221.48 57.3667 221.004 57.55 220.38 57.55C219.757 57.55 219.262 57.3667 218.895 57C218.529 56.5967 218.345 56.0467 218.345 55.35V51.83C217.062 53.7 215.412 55.13 213.395 56.12C211.415 57.0733 209.124 57.55 206.52 57.55ZM206.85 54.085C210.407 54.085 213.212 53.15 215.265 51.28C217.319 49.3733 218.345 46.7883 218.345 43.525C218.345 41.3617 217.814 39.4917 216.75 37.915C215.724 36.3017 214.33 35.0733 212.57 34.23C210.847 33.3867 208.959 32.965 206.905 32.965C203.459 32.965 200.764 33.955 198.82 35.935C196.877 37.8783 195.905 40.4633 195.905 43.69C195.905 47.1367 196.859 49.74 198.765 51.5C200.672 53.2233 203.367 54.085 206.85 54.085ZM246.23 57.55C242.71 57.55 239.465 56.9633 236.495 55.79C233.561 54.58 231.27 52.93 229.62 50.84C229.326 50.4733 229.18 50.0883 229.18 49.685C229.18 49.1717 229.455 48.6767 230.005 48.2C230.298 47.98 230.61 47.87 230.94 47.87C231.6 47.87 232.186 48.1817 232.7 48.805C234.203 50.455 236.091 51.7383 238.365 52.655C240.675 53.535 243.296 53.975 246.23 53.975C249.456 53.975 251.95 53.3883 253.71 52.215C255.47 51.005 256.35 49.3 256.35 47.1C256.35 45.1933 255.488 43.6533 253.765 42.48C252.078 41.3067 249.2 40.2617 245.13 39.345C239.813 38.1717 235.981 36.705 233.635 34.945C231.325 33.1483 230.17 30.7833 230.17 27.85C230.17 24.8067 231.453 22.405 234.02 20.645C236.623 18.8483 240.125 17.95 244.525 17.95C247.861 17.95 250.868 18.5367 253.545 19.71C256.258 20.8833 258.183 22.46 259.32 24.44C259.54 24.8067 259.65 25.155 259.65 25.485C259.65 26.0717 259.338 26.585 258.715 27.025C258.458 27.1717 258.165 27.245 257.835 27.245C257.028 27.245 256.405 26.9333 255.965 26.31C254.901 24.77 253.398 23.5967 251.455 22.79C249.511 21.9467 247.201 21.525 244.525 21.525C237.741 21.525 234.35 23.6333 234.35 27.85C234.35 29.1333 234.698 30.215 235.395 31.095C236.091 31.9383 237.21 32.7083 238.75 33.405C240.326 34.065 242.508 34.725 245.295 35.385C250.721 36.6683 254.626 38.2267 257.01 40.06C259.393 41.8567 260.585 44.2033 260.585 47.1C260.585 50.3267 259.283 52.875 256.68 54.745C254.113 56.615 250.63 57.55 246.23 57.55ZM277.506 57.55C273.913 57.55 271.09 56.7617 269.036 55.185C267.02 53.6083 266.011 51.4267 266.011 48.64C266.011 45.89 267.075 43.7083 269.201 42.095C271.365 40.4817 274.298 39.675 278.001 39.675C280.165 39.675 282.071 39.9683 283.721 40.555C285.408 41.1417 286.71 41.93 287.626 42.92V39.4C287.626 37.31 286.93 35.715 285.536 34.615C284.18 33.515 282.181 32.965 279.541 32.965C276.131 32.965 273.18 33.7717 270.686 35.385C270.063 35.7517 269.55 35.935 269.146 35.935C268.78 35.935 268.413 35.7883 268.046 35.495C267.643 35.165 267.441 34.7433 267.441 34.23C267.441 33.68 267.68 33.2217 268.156 32.855C269.476 31.8283 271.145 31.0217 273.161 30.435C275.215 29.8117 277.305 29.5 279.431 29.5C283.318 29.5 286.325 30.38 288.451 32.14C290.615 33.9 291.696 36.375 291.696 39.565V55.405C291.696 56.835 291.036 57.55 289.716 57.55C289.13 57.55 288.653 57.3667 288.286 57C287.92 56.5967 287.736 56.0833 287.736 55.46V53.48C285.463 56.1933 282.053 57.55 277.506 57.55ZM278.001 54.195C280.861 54.195 283.19 53.6633 284.986 52.6C286.783 51.5 287.681 50.0883 287.681 48.365C287.681 46.6417 286.838 45.3217 285.151 44.405C283.501 43.4517 281.155 42.975 278.111 42.975C275.545 42.975 273.565 43.47 272.171 44.46C270.778 45.4133 270.081 46.8067 270.081 48.64C270.081 50.4367 270.76 51.8117 272.116 52.765C273.473 53.7183 275.435 54.195 278.001 54.195ZM310.769 57.55C309.009 57.55 307.506 57.0183 306.259 55.955C305.049 54.8917 304.041 53.2417 303.234 51.005L296.414 32.14C296.341 31.8467 296.304 31.645 296.304 31.535C296.304 31.1317 296.433 30.765 296.689 30.435C296.946 30.0683 297.276 29.8117 297.679 29.665C297.863 29.5917 298.138 29.555 298.504 29.555C298.944 29.555 299.311 29.665 299.604 29.885C299.934 30.105 300.173 30.4167 300.319 30.82L307.249 49.905C307.836 51.4817 308.386 52.5817 308.899 53.205C309.413 53.8283 310.036 54.14 310.769 54.14C311.503 54.14 312.126 53.8467 312.639 53.26C313.189 52.6367 313.739 51.555 314.289 50.015L321.219 30.82C321.549 29.9767 322.154 29.555 323.034 29.555C323.694 29.555 324.226 29.7567 324.629 30.16C325.069 30.5267 325.289 30.985 325.289 31.535C325.289 31.645 325.253 31.8467 325.179 32.14L318.249 51.115C317.443 53.3517 316.434 54.9833 315.224 56.01C314.014 57.0367 312.529 57.55 310.769 57.55ZM342.523 57.55C337.756 57.55 334.071 56.3217 331.468 53.865C328.864 51.4083 327.563 47.925 327.563 43.415C327.563 39.0883 328.883 35.6967 331.523 33.24C334.163 30.7467 337.774 29.5 342.358 29.5C345.181 29.5 347.693 29.9583 349.893 30.875C352.093 31.755 353.798 33.02 355.008 34.67C356.254 36.2833 356.878 38.135 356.878 40.225C356.878 41.765 356.438 42.9567 355.558 43.8C354.714 44.6433 353.541 45.065 352.038 45.065H331.688C331.688 47.8883 332.641 50.1067 334.548 51.72C336.454 53.2967 339.113 54.085 342.523 54.085C344.613 54.085 346.409 53.865 347.913 53.425C349.416 52.9483 350.828 52.1967 352.148 51.17C352.844 50.5833 353.413 50.29 353.853 50.29C354.183 50.29 354.494 50.4367 354.788 50.73C355.301 51.17 355.558 51.6283 355.558 52.105C355.558 52.4717 355.338 52.875 354.898 53.315C353.394 54.745 351.634 55.8083 349.618 56.505C347.601 57.2017 345.236 57.55 342.523 57.55ZM350.828 41.82C351.488 41.82 351.983 41.6917 352.313 41.435C352.643 41.1417 352.808 40.6283 352.808 39.895C352.808 38.575 352.368 37.3833 351.488 36.32C350.608 35.2567 349.361 34.4317 347.748 33.845C346.171 33.2583 344.374 32.965 342.358 32.965C339.094 32.965 336.509 33.7717 334.603 35.385C332.733 36.9617 331.798 39.1067 331.798 41.82H350.828ZM365.135 57.55C364.512 57.55 364.017 57.3667 363.65 57C363.32 56.5967 363.155 56.0467 363.155 55.35V31.7C363.155 31.0033 363.32 30.4717 363.65 30.105C363.98 29.7017 364.475 29.5 365.135 29.5C365.759 29.5 366.235 29.7017 366.565 30.105C366.932 30.4717 367.115 31.0033 367.115 31.7V35C369.609 31.7 373.055 30.05 377.455 30.05H378.83C379.527 30.05 380.077 30.215 380.48 30.545C380.884 30.8383 381.085 31.26 381.085 31.81C381.085 32.36 380.884 32.7817 380.48 33.075C380.077 33.3683 379.527 33.515 378.83 33.515H377.29C374.174 33.515 371.699 34.4133 369.865 36.21C368.069 37.97 367.17 40.3717 367.17 43.415V55.35C367.17 56.01 366.987 56.5417 366.62 56.945C366.29 57.3483 365.795 57.55 365.135 57.55Z" fill="#E35B5B"/>
<path d="M61.9879 21.9049C60.3997 20.6669 58.5139 19.6849 56.4384 19.0149C54.3629 18.3449 52.1382 18 49.8916 18C47.645 18 45.4203 18.3449 43.3448 19.0149C41.2693 19.6849 39.3836 20.6669 37.7953 21.9049L34.4992 24.4729L31.203 21.9049C27.9949 19.4055 23.6437 18.0013 19.1067 18.0013C14.5697 18.0013 10.2186 19.4055 7.01044 21.9049C3.80231 24.4043 2 27.7943 2 31.329C2 34.8638 3.80231 38.2537 7.01044 40.7532L10.3066 43.3212L34.4992 62.1694L58.6917 43.3212L61.9879 40.7532C63.5769 39.5158 64.8374 38.0466 65.6974 36.4296C66.5574 34.8126 67 33.0794 67 31.329C67 29.5787 66.5574 27.8455 65.6974 26.2285C64.8374 24.6115 63.5769 23.1423 61.9879 21.9049Z" stroke="#E35B5B" stroke-width="4" stroke-linecap="round" stroke-linejoin="round"/>
</svg>
