<svg width="69" height="49" viewBox="0 0 69 49" fill="none" xmlns="http://www.w3.org/2000/svg">
<path d="M61.9879 5.9049C60.3997 4.66693 58.5139 3.68489 56.4384 3.01487C54.3629 2.34486 52.1382 2 49.8916 2C47.645 2 45.4203 2.34486 43.3448 3.01487C41.2693 3.68489 39.3836 4.66693 37.7953 5.9049L34.4992 8.47291L31.203 5.9049C27.9949 3.40546 23.6437 2.0013 19.1067 2.0013C14.5697 2.0013 10.2186 3.40546 7.01044 5.9049C3.80231 8.40433 2 11.7943 2 15.329C2 18.8638 3.80231 22.2537 7.01044 24.7532L10.3066 27.3212L34.4992 46.1694L58.6917 27.3212L61.9879 24.7532C63.5769 23.5158 64.8374 22.0466 65.6974 20.4296C66.5574 18.8126 67 17.0794 67 15.329C67 13.5787 66.5574 11.8455 65.6974 10.2285C64.8374 8.61145 63.5769 7.14228 61.9879 5.9049Z" stroke="#E35B5B" stroke-width="4" stroke-linecap="round" stroke-linejoin="round"/>
</svg>
